<?xml version="1.0" encoding="utf-8"?>
<!-- Generator: Adobe Illustrator 21.1.0, SVG Export Plug-In . SVG Version: 6.00 Build 0)  -->
<svg version="1.1" id="Слой_2" xmlns="http://www.w3.org/2000/svg" xmlns:xlink="http://www.w3.org/1999/xlink" x="0px" y="0px"
	 viewBox="0 0 4869 3056" style="enable-background:new 0 0 4869 3056;" xml:space="preserve">
<style type="text/css">
	.st0{fill:#EFF0A8;stroke:#EEBC45;stroke-width:32;stroke-miterlimit:10;}
	.st1{fill:#FFFFFF;}
	.st2{fill:#EDEDED;}
</style>
<ellipse class="st0" cx="2967.9" cy="457.7" rx="321.5" ry="89.2"/>
<g>
	<g>
		<path class="st1" d="M1066.9,1153.5c-32.6,108.1-66.5,215.8-101.8,323c-35.3,107.2-72,214-110,320.3
			c-21.3,59.6-43.1,119-65.2,178.3c-3.1,8.3-0.7,20.4,3.6,27.7c4.4,7.5,12.9,14.6,21.5,16.5c9.2,2.1,19.6,1.6,27.7-3.6
			c8.3-5.3,13.1-12.3,16.5-21.5c39.5-105.7,77.7-212,114.6-318.7c36.8-106.7,72.3-213.9,106.4-321.5
			c19.1-60.3,37.8-120.8,56.1-181.4c5.4-18-6.5-40-25.1-44.3C1091.8,1123.9,1072.7,1134.2,1066.9,1153.5L1066.9,1153.5z"/>
	</g>
</g>
<g>
	<g>
		<path class="st1" d="M1292.7,1063.4c24.8-16.7,51.1-30.9,78.6-42.6c-2.9,1.2-5.7,2.4-8.6,3.6c28.5-12,58.5-22.2,89.3-26.4
			c-3.2,0.4-6.4,0.9-9.6,1.3c15.5-2,31.1-2.5,46.6-0.6c-3.2-0.4-6.4-0.9-9.6-1.3c9.8,1.3,19.4,3.7,28.6,7.5
			c-2.9-1.2-5.7-2.4-8.6-3.6c6.9,2.9,13.3,6.6,19.2,11.1c-2.4-1.9-4.9-3.8-7.3-5.6c4.9,3.9,9.3,8.3,13.2,13.2
			c-1.9-2.4-3.8-4.9-5.6-7.3c4.3,5.5,7.7,11.5,10.4,17.9c-1.2-2.9-2.4-5.7-3.6-8.6c2.8,6.8,4.6,13.9,5.6,21.2
			c-0.4-3.2-0.9-6.4-1.3-9.6c1.4,10.5,1.1,21.1-0.3,31.6c0.4-3.2,0.9-6.4,1.3-9.6c-2.5,17.8-7.9,34.9-14.8,51.5
			c1.2-2.9,2.4-5.7,3.6-8.6c-18.2,42.8-43.9,83.1-72.3,119.8c1.9-2.4,3.8-4.9,5.6-7.3c-28.3,36.5-60.6,69.7-96.3,99.1
			c-4.3,3.5-7.8,10.6-9.3,15.9c-2.2,7.8-1.3,16,1.8,23.4c5.8,13.7,18.3,21.1,32.9,22.1c13.1,0.9,26.2,2.2,39.3,3.9
			c-3.2-0.4-6.4-0.9-9.6-1.3c30,4.1,59.7,10.7,87.7,22.5c-2.9-1.2-5.7-2.4-8.6-3.6c15.6,6.7,30.4,14.9,43.8,25.2
			c-2.4-1.9-4.9-3.8-7.3-5.6c10.3,8.1,19.6,17.3,27.6,27.6c-1.9-2.4-3.8-4.9-5.6-7.3c7.4,9.7,13.5,20.2,18.3,31.3
			c-1.2-2.9-2.4-5.7-3.6-8.6c5.1,12.3,8.5,25.2,10.3,38.5c-0.4-3.2-0.9-6.4-1.3-9.6c2,15.8,1.7,31.7-0.4,47.5
			c0.4-3.2,0.9-6.4,1.3-9.6c-3,21.4-9.1,42.2-17.4,62.1c1.2-2.9,2.4-5.7,3.6-8.6c-11,26.1-25.6,50.5-42.9,72.9
			c1.9-2.4,3.8-4.9,5.6-7.3c-23.1,29.6-50.7,55.7-80.3,78.7c2.4-1.9,4.9-3.8,7.3-5.6c-34.9,26.9-73.1,49.2-113.7,66.3
			c2.9-1.2,5.7-2.4,8.6-3.6c-40.6,17-83.2,28.8-126.9,34.7c3.2-0.4,6.4-0.9,9.6-1.3c-1.1,0.1-2.1,0.3-3.2,0.4
			c-9.9,1.3-18.1,3.2-25.5,10.5c-6.2,6.2-10.9,16.5-10.5,25.5c0.4,9.3,3.5,19,10.5,25.5c6.5,6,16.2,11.7,25.5,10.5
			c33.1-4.3,65.6-10.6,97.4-20.8c31.8-10.2,62.8-23.3,92.3-38.9c29.3-15.6,56.6-34.2,82.7-54.7c24.1-18.9,46.6-40,66.6-63.3
			c20.7-24.1,39-50.5,52.8-79.1c7.4-15.4,14-31.3,19.1-47.7c5-16.2,7.9-32.7,9.9-49.5c7.6-62.5-16.3-127.7-66.2-167
			c-25.6-20.2-54.1-34.4-85.3-44c-29.6-9.2-60.4-13.8-91.2-16.8c-6.7-0.7-13.5-1.2-20.3-1.7c8.5,20.5,17,41,25.5,61.5
			c40.8-33.5,76.4-72.2,108-114.4c30.4-40.6,57.9-85.7,75-133.7c18.2-50.9,18.8-114.8-24.6-153.6c-39.8-35.6-94.7-38.1-144.7-28.8
			c-29.9,5.5-58.7,16.4-86.6,28.3c-27.5,11.7-53.8,25.9-78.6,42.6c-7.8,5.3-14,12.2-16.5,21.5c-2.4,8.6-1.3,20.1,3.6,27.7
			C1253.5,1066.1,1276,1074.7,1292.7,1063.4L1292.7,1063.4z"/>
	</g>
</g>
<g>
	<g>
		<path class="st1" d="M2132.2,1098.8c-20.4,113-47.8,224.8-82,334.4c-17,54.5-35.7,108.5-56,161.9c-10.7,28.2-26.6,59.6-15.5,90.2
			c7.2,19.9,21.2,33.9,40.9,41.4c13.7,5.2,28.3,4.2,42.4,2c27.5-4.3,51.1-20.4,74.8-33.8c26.6-15.1,54.1-28.6,82.2-40.5
			c-2.9,1.2-5.7,2.4-8.6,3.6c55.5-23.3,114.6-42,174.3-50c-3.2,0.4-6.4,0.9-9.6,1.3c22.2-2.9,44.7-3.9,67-1
			c-3.2-0.4-6.4-0.9-9.6-1.3c13.7,1.9,27.1,5.2,39.9,10.5c-2.9-1.2-5.7-2.4-8.6-3.6c7.4,3.1,14.5,6.9,21.2,11.2
			c15.8,10.3,40.5,3.7,49.3-12.9c9.5-17.9,4-38.3-12.9-49.3c-56-36.3-126.7-31.6-189.1-18.5c-64.6,13.6-127.2,35.8-186.6,64.6
			c-15.9,7.7-31.6,15.9-46.9,24.7c-13.3,7.6-26.1,16-40.2,22.1c2.9-1.2,5.7-2.4,8.6-3.6c-8.3,3.4-16.8,6.2-25.8,7.4
			c3.2-0.4,6.4-0.9,9.6-1.3c-4.4,0.5-8.9,0.7-13.3,0.1c3.2,0.4,6.4,0.9,9.6,1.3c-3-0.4-5.9-1.2-8.7-2.3c2.9,1.2,5.7,2.4,8.6,3.6
			c-2.4-1.1-4.6-2.3-6.7-3.9c2.4,1.9,4.9,3.8,7.3,5.6c-1.8-1.5-3.4-3.1-4.9-4.9c1.9,2.4,3.8,4.9,5.6,7.3c-1.7-2.3-3.1-4.7-4.2-7.4
			c1.2,2.9,2.4,5.7,3.6,8.6c-0.9-2.5-1.6-5-2-7.6c0.4,3.2,0.9,6.4,1.3,9.6c-0.5-4.3-0.4-8.5,0.2-12.9c-0.4,3.2-0.9,6.4-1.3,9.6
			c2.7-17.2,10.8-33.5,16.9-49.7c6.7-17.5,13.2-35,19.5-52.7c12.5-34.9,24.4-70.1,35.5-105.5c22.3-71.1,41.8-143.2,58.3-215.9
			c9.3-40.8,17.6-81.9,25.1-123.1c1.8-9.7,1.5-19-3.6-27.7c-4.4-7.5-12.9-14.6-21.5-16.5c-9.2-2.1-19.6-1.6-27.7,3.6
			C2141.2,1082.1,2133.8,1089.7,2132.2,1098.8L2132.2,1098.8z"/>
	</g>
</g>
<g>
	<g>
		<path class="st1" d="M2919.6,1171.3c-35.4,101.4-53.8,209.1-54.8,316.5c-0.3,29.6,0.8,59.2,3.3,88.6c0.8,9.7,3.5,18.4,10.5,25.5
			c6.2,6.2,16.5,10.9,25.5,10.5c9.3-0.4,19-3.5,25.5-10.5c6.2-6.7,11.3-16,10.5-25.5c-5.8-68.9-4-138.3,5.1-206.9
			c-0.4,3.2-0.9,6.4-1.3,9.6c8.7-64.2,23.7-127.5,45.1-188.6c3-8.5,0.8-20.2-3.6-27.7c-4.4-7.5-12.9-14.6-21.5-16.5
			C2943.8,1141.6,2926.3,1152.2,2919.6,1171.3L2919.6,1171.3z"/>
	</g>
</g>
<g>
	<g>
		<path class="st1" d="M3375.4,1081.1c-31.4,126.5-62.8,253-94.3,379.6c-8.8,35.5-17.6,71-26.5,106.5c23.1,6.4,46.3,12.8,69.4,19.1
			c10.6-64.4,21.4-128.9,34.3-192.9c12.9-63.8,28.1-127.2,47.8-189.3c11-34.9,23.5-69.3,37.7-103c-1.2,2.9-2.4,5.7-3.6,8.6
			c10.3-24.4,21.5-48.3,33.6-71.8c-21.9-2.9-43.9-5.7-65.8-8.6c19.8,62.1,46.2,122.4,78.6,178.9c32.6,56.7,71.5,110.1,115.3,158.6
			c23.6,26.2,48.9,51,75.5,74.2c8.9,7.7,18.4,11.5,30.2,9.9c10.4-1.4,21.6-7.2,26.3-17.2c37-77.5,71.8-156,104.8-235.3
			c32.1-77,62.2-154.8,90.2-233.3c7.5-21,14.5-40.9,17-63.2c2.7-24-4.4-50.5-22.9-66.9c-7.2-6.4-15.7-10.5-25.5-10.5
			c-8.8,0-19.4,3.9-25.5,10.5c-12.6,13.7-15,37.6,0,50.9c1.7,1.5,3.2,3.1,4.6,4.8c-1.9-2.4-3.8-4.9-5.6-7.3c1.8,2.4,3.3,4.9,4.6,7.7
			c-1.2-2.9-2.4-5.7-3.6-8.6c1.5,3.6,2.5,7.3,3.1,11.2c-0.4-3.2-0.9-6.4-1.3-9.6c0.8,6.4,0.6,12.8-0.2,19.2c0.4-3.2,0.9-6.4,1.3-9.6
			c-2.6,18.4-9.6,35.7-15.8,53.1c-7.5,20.8-15.1,41.6-22.8,62.4c-15.3,40.9-31.1,81.5-47.4,122c-9.4,23.2-18.9,46.3-28.7,69.4
			c1.2-2.9,2.4-5.7,3.6-8.6c-29.2,69.2-60,137.6-92.3,205.4c18.8-2.4,37.7-4.9,56.5-7.3c-43.4-37.7-83-79.8-118.2-125.2
			c1.9,2.4,3.8,4.9,5.6,7.3c-36.1-46.8-67.6-97.2-93.7-150.3c-7.5-15.2-14.5-30.7-21.1-46.3c1.2,2.9,2.4,5.7,3.6,8.6
			c-10.2-24.2-19.3-48.9-27.2-74c-4.4-13.8-15.4-23.8-29.9-25.8c-13.6-1.8-29.3,4.4-35.9,17.2c-35.8,69.1-63.5,142.4-85.1,217.1
			c-21.1,72.8-36.7,147.1-50.2,221.6c-7.7,42.2-14.7,84.6-21.7,126.9c-1.6,9.8-1.6,18.8,3.6,27.7c4.4,7.5,12.9,14.6,21.5,16.5
			c18.6,4.2,39.4-5.6,44.3-25.1c31.4-126.5,62.8-253,94.3-379.6c8.8-35.5,17.6-71,26.5-106.5c4.5-18.2-5.9-39.9-25.1-44.3
			C3401.1,1051.7,3380.3,1061.6,3375.4,1081.1L3375.4,1081.1z"/>
	</g>
</g>
<g>
	<g>
		<path class="st2" d="M1141.9,2396.1c20.7-14.7,42.2-28.4,64.4-40.6c10.3-5.7,20.7-11.1,31.3-16.2c5.3-2.6,10.6-5,15.9-7.5
			c3-1.4,6.1-2.7,9.2-4.1c8.9-4.1-16.6,6.6-1,0.4c46.1-18.5,93.7-32.8,142.3-43.2c12.5-2.6,25-5,37.5-7.2c5.9-1,11.8-2,17.7-2.9
			c2.5-0.4,5.1-0.8,7.6-1.2c2.4-0.4,17.3-2.4,5.7-0.9c-10.3,1.4-1.3,0.2,0.6-0.1c3.4-0.4,6.8-0.8,10.2-1.2c6-0.7,11.9-1.4,17.9-2
			c13.7-1.4,27.5-2.6,41.2-3.6c51-3.6,102.3-4.5,153.4-3.5c223.6,4.3,446,45.1,670,28.2c61.3-4.6,122.8-13,182.7-27
			c58.1-13.7,113.7-34.1,168.3-58c49.5-21.7,97.5-46.7,146-70.5c23.4-11.4,46.9-22.5,70.7-32.9c12-5.3-0.5,0-2.4,1
			c3.1-1.6,6.7-2.8,9.9-4c5.8-2.3,11.6-4.6,17.4-6.8c12.5-4.7,25.1-9.1,37.8-13.1c25.8-8.1,51.9-14,78.5-18.7
			c4.3-0.8,11.8-4.2-1.3,0.1c2.6-0.9,6.2-0.7,8.9-1c6.9-0.7,13.9-1.3,20.8-1.8c15.9-1,31.8-1.4,47.7-1.3c30,0.3,59.9,2.5,89.6,5.7
			c7,0.8,14,1.6,20.9,2.4c3,0.4,6,0.8,9,1.1c13.9,1.7,1.4,0.1-1.2-0.2c15,1.7,30,4.3,45,6.6c114.4,17.3,227.7,34.1,343.6,24.6
			c218-17.8,424.5-99.8,595.5-236c20-16,39.4-32.7,58.1-50.2c27.6-25.7,28-76.1,0-101.8c-29.6-27.1-72.4-27.5-101.8,0
			c-18.7,17.5-38.1,34.3-58.1,50.2c-2,1.6-4,3.2-6,4.8c-7.8,6.2,10.4-7.8,2.4-1.9c-4.8,3.5-9.5,7.2-14.4,10.7
			c-11,8-22.2,15.9-33.6,23.4c-41.9,28-85.9,52.7-131.5,74.1c-5.4,2.5-10.8,5-16.3,7.5c-3.1,1.4-19.4,8.3-10.2,4.5
			c10-4.1-7.8,3.1-10.3,4.2c-6.3,2.5-12.7,5-19.1,7.4c-24,9-48.3,17.2-72.9,24.4c-24.6,7.2-49.4,13.5-74.5,18.8
			c-11.7,2.5-23.4,4.8-35.2,6.8c-5.9,1-11.8,2-17.7,2.9c-5.1,0.8-29.4,2.3-8.7,1.4c-24.6,1-49.2,5.4-73.9,6.7
			c-25.6,1.3-51.2,1.7-76.8,1c-26.3-0.7-52.5-2.6-78.6-5.3c-8-0.8-16-1.8-24-2.7c-3-0.4-6-0.8-9-1.1c-11-1.3,12.1,1.7,1.1,0.2
			c-15-2.1-30-4.3-45-6.5c-126.6-19.1-252.8-40.3-380.1-15.2c-108.2,21.4-206.7,75.9-304.7,124c-24.3,11.9-48.8,23.1-73.4,34.2
			c-7.6,3.4,4.7-1.9,4.8-2c-1.3,1.4-7.7,3.2-10,4.1c-5.8,2.4-11.7,4.6-17.5,6.9c-14.2,5.4-28.5,10.3-42.9,14.9
			c-26.3,8.3-53.1,15.4-80.1,21.2c-13,2.8-26.1,5.3-39.2,7.6c-7.5,1.3-15,2.5-22.5,3.6c-2.8,0.4-5.6,0.8-8.5,1.2
			c-9.1,1.4,13.5-1.5-0.7,0.1c-224.8,25.3-447.8-11.3-672.2-20.8c-209.5-8.9-429.9,7.8-616.9,110.9c-22.3,12.3-43.7,25.9-64.4,40.6
			c-30.6,21.8-48.2,63.8-25.8,98.5C1063,2400.6,1109.1,2419.4,1141.9,2396.1L1141.9,2396.1z"/>
	</g>
</g>
</svg>
