<svg xmlns="http://www.w3.org/2000/svg" viewBox="0 0 236.22 182.13"><defs><style>.cls-1{fill:#f2f2f2;}</style></defs><title>Ресурс 1</title><g id="Слой_2" data-name="Слой 2"><g id="Слой_1-2" data-name="Слой 1"><path class="cls-1" d="M15.73,128.31A213.08,213.08,0,0,0,87.55,94.12c20.2-14.84,40.32-34.23,47.7-58.89l-25.71-.62c.15,22.35,15,40.56,34.26,50.58,11.19,5.82,23.45,9,35.89,10.75,6.22.9,12.49,1.44,18.76,1.87,3,.21,6,.39,9,.57l5.38.34c1.1.07,5.14,1.32,2.28,0l-4.43-3.12.44.68L210.56,89l-.19.49,10.05-7.52-.55.18,9.93.19-.49-.12,5.73,8,0-.41c-.25-6.47-6.14-9.17-12.11-8.75-4.93.34-14.58,4.22-14.34,10.65l0,.41c.14,3.59,1.87,7,5.73,8,7.66,1.87,22.77-.78,21.87-11.68-.71-8.67-11.54-8.66-18-9.06-13.22-.83-26.7-1.33-39.65-4.37C158.79,70.24,136.14,55.38,136,32.7c-.09-12.63-22.7-10.69-25.71-.62-6.36,21.26-22.66,37-40.1,49.85a174.72,174.72,0,0,1-59.32,28.18c-5.21,1.37-12.29,6.3-10.6,12.59s10.35,7,15.48,5.6Z" transform="translate(0 -23.87)"/><path class="cls-1" d="M49.48,140.7q-1.83,28.16-2.81,56.36c-.3,8.68,9.4,9.72,15.77,8.57a425,425,0,0,1,97.91-6.11c5.69.3,15-1.57,16.93-8.16a159.08,159.08,0,0,0,5.37-64.86c-.8-6.55-10.85-7.2-15.57-5.93-6.09,1.63-11.33,6.29-10.51,12.92a136.5,136.5,0,0,1-4.36,54.39l16.93-8.16A481.73,481.73,0,0,0,57.4,186.76l15.77,8.57q1-28.2,2.81-56.36c.91-14-25.68-10.72-26.49,1.73Z" transform="translate(0 -23.87)"/></g></g></svg>