<svg xmlns="http://www.w3.org/2000/svg" viewBox="0 0 253.75 253.75"><defs><style>.cls-1{fill:#010000;}.cls-2{fill:#fff;fill-rule:evenodd;}</style></defs><title>Ресурс 2</title><g id="Слой_2" data-name="Слой 2"><g id="Var1"><g id="Квадраты"><rect class="cls-1" width="253.75" height="253.75" rx="25" ry="25"/></g><g id="Иконки"><path id="vk_alt" class="cls-2" d="M124.82,184.5h11.45s3.46-.38,5.23-2.28c1.63-1.75,1.57-5,1.57-5s-.22-15.36,6.91-17.63S166,174.41,175.6,181c7.24,5,12.73,3.88,12.73,3.88l25.58-.36s13.38-.83,7-11.35c-.52-.86-3.7-7.78-19-22-16-14.89-13.89-12.48,5.43-38.23,11.77-15.68,16.47-25.26,15-29.36-1.4-3.91-10.06-2.88-10.06-2.88l-28.8.18a6.55,6.55,0,0,0-3.72.66,8,8,0,0,0-2.54,3.09,167.13,167.13,0,0,1-10.64,22.46c-12.83,21.78-18,22.93-20.05,21.58-4.88-3.15-3.66-12.66-3.66-19.42,0-21.11,3.2-29.91-6.23-32.19-3.13-.76-5.44-1.25-13.45-1.34-10.28-.1-19,0-23.9,2.45C96,79.74,93.5,83.32,95,83.53c1.9.25,6.21,1.16,8.5,4.27,3,4,2.85,13,2.85,13s1.7,24.85-4,27.93c-3.88,2.12-9.21-2.2-20.64-22A183.75,183.75,0,0,1,71.51,85.49a8.56,8.56,0,0,0-2.37-3.21,11.89,11.89,0,0,0-4.42-1.79l-27.37.18s-4.11.11-5.62,1.9c-1.34,1.59-.11,4.88-.11,4.88S53,137.59,77.3,162.85C99.56,186,124.82,184.5,124.82,184.5Z"/></g></g></g></svg>