<svg xmlns="http://www.w3.org/2000/svg" viewBox="0 0 253.75 253.75"><defs><style>.cls-1{fill:#f4c51b;}.cls-2{fill:#fff;}</style></defs><title>Ресурс 2</title><g id="Слой_2" data-name="Слой 2"><g id="Var1"><g id="Квадраты"><rect class="cls-1" width="253.75" height="253.75" rx="25" ry="25"/></g><g id="Иконки"><g id="instagram"><path class="cls-2" d="M126.87,65.82c19.89,0,22.24.08,30.09.43,7.26.33,11.2,1.54,13.83,2.56A24.66,24.66,0,0,1,184.93,83c1,2.62,2.23,6.57,2.56,13.83.36,7.85.43,10.21.43,30.09s-.08,22.24-.43,30.09c-.33,7.26-1.54,11.2-2.56,13.83a24.66,24.66,0,0,1-14.13,14.13c-2.62,1-6.57,2.23-13.83,2.56-7.85.36-10.21.43-30.09.43s-22.24-.08-30.09-.43c-7.26-.33-11.2-1.54-13.83-2.56A24.66,24.66,0,0,1,68.82,170.8c-1-2.62-2.23-6.57-2.56-13.83-.36-7.85-.43-10.21-.43-30.09s.08-22.24.43-30.09c.33-7.26,1.54-11.2,2.56-13.83A24.66,24.66,0,0,1,83,68.82c2.62-1,6.57-2.23,13.83-2.56,7.85-.36,10.21-.43,30.09-.43m0-13.42c-20.23,0-22.76.09-30.71.45a54.66,54.66,0,0,0-18.08,3.46A38.08,38.08,0,0,0,56.31,78.09a54.66,54.66,0,0,0-3.46,18.08c-.36,7.94-.45,10.48-.45,30.71s.09,22.76.45,30.71a54.66,54.66,0,0,0,3.46,18.08,38.08,38.08,0,0,0,21.78,21.78,54.66,54.66,0,0,0,18.08,3.46c7.94.36,10.48.45,30.71.45s22.76-.09,30.71-.45a54.66,54.66,0,0,0,18.08-3.46,38.08,38.08,0,0,0,21.78-21.78,54.66,54.66,0,0,0,3.46-18.08c.36-7.94.45-10.48.45-30.71s-.09-22.76-.45-30.71a54.67,54.67,0,0,0-3.46-18.08,38.08,38.08,0,0,0-21.78-21.78,54.66,54.66,0,0,0-18.08-3.46c-7.94-.36-10.48-.45-30.71-.45Z"/><path class="cls-2" d="M126.87,88.63a38.24,38.24,0,1,0,38.24,38.24A38.24,38.24,0,0,0,126.87,88.63Zm0,63.07a24.82,24.82,0,1,1,24.82-24.82A24.82,24.82,0,0,1,126.87,151.7Z"/><circle class="cls-2" cx="166.63" cy="87.12" r="8.94"/></g></g></g></g></svg>