<svg xmlns="http://www.w3.org/2000/svg" viewBox="0 0 253.75 253.69"><defs><style>.cls-1{fill:#f4c51b;}.cls-2{fill:#fff;fill-rule:evenodd;}</style></defs><title>Ресурс 3</title><g id="Слой_2" data-name="Слой 2"><g id="Var1"><g id="Квадраты"><rect class="cls-1" width="253.75" height="253.69" rx="25" ry="25"/></g><g id="Иконки"><g id="whatsapp"><path class="cls-2" d="M128.27,49.53A75.34,75.34,0,0,0,63.75,163.75L50.16,204.16l41.7-13.35a75.33,75.33,0,1,0,36.4-141.28Zm0,138a62.36,62.36,0,0,1-34.5-10.37l-24.1,7.71,7.83-23.28a62.68,62.68,0,1,1,50.76,25.94ZM163.58,142c-1.89-1-11.16-6-12.9-6.75s-3-1.07-4.36.8-5.2,6.06-6.37,7.31-2.3,1.36-4.19.32a52.51,52.51,0,0,1-15.1-10.12,58.07,58.07,0,0,1-10.2-13.71c-1.05-2,0-3,1-3.89s2-2.18,3-3.26a13.15,13.15,0,0,0,2-3.13,3.54,3.54,0,0,0,0-3.37c-.45-1-3.94-10.58-5.39-14.49s-3.08-3.33-4.2-3.37-2.4-.25-3.68-.3A7.07,7.07,0,0,0,98,90.21,21.57,21.57,0,0,0,90.65,106c-.35,9.46,6.19,18.86,7.1,20.17s12.5,21.83,31.75,30.26,19.36,5.86,22.89,5.67,11.55-4.23,13.32-8.65,1.91-8.28,1.46-9.1S165.47,143,163.58,142Z"/></g></g></g></g></svg>