<?xml version="1.0" encoding="utf-8"?>
<!-- Generator: Adobe Illustrator 21.1.0, SVG Export Plug-In . SVG Version: 6.00 Build 0)  -->
<svg version="1.1" id="Слой_1" xmlns="http://www.w3.org/2000/svg" xmlns:xlink="http://www.w3.org/1999/xlink" x="0px" y="0px"
	 viewBox="0 0 300 150" style="enable-background:new 0 0 300 150;" xml:space="preserve">
<style type="text/css">
	.st0{fill:#050606;}
	.st1{fill:#DBDCDC;}
	.st2{fill:#FFFFFF;}
</style>
<g>
	<g>
		<path class="st0" d="M28.6-18.4c1.7,0,2.2-2.2,0.2-2.2C27.2-20.6,26.7-18.4,28.6-18.4L28.6-18.4z"/>
	</g>
</g>
<g>
	<g>
		<path class="st1" d="M165.3,77.7c-1.6,16.2-2.5,32.5-2.7,48.7c-0.2,1,0,1.9,0.7,2.7c0.9,0.8,2,1.3,3.2,1.5
			c11.9,1.3,23.9,1.2,35.7-0.9c2.7-0.5,5.3-1.2,7.6-2.6c1.4-0.9,3.4-2.4,3.8-4.2c0.9-4.3-6.1-4.7-8.6-4.2c-2.4,0.4-4.9,0.8-7.3,1.1
			c-1.2,0.2-2.5,0.2-3.7,0.3c-0.3,0-2.4,0.2-1,0.1c1.5-0.2-0.9,0-1,0c-2.3,0.1-4.7,0.1-7,0c-1.2,0-2.5-0.1-3.7-0.2
			c-0.6,0-1.2-0.1-1.8-0.2c-1.9-0.1,1.3,0.2-0.7-0.1c1.3,1.4,2.6,2.8,3.9,4.1c0.2-16.3,1.1-32.5,2.7-48.7c0.4-4.4-5.6-4.7-8.6-4.2
			c-2.6,0.4-5.3,1.1-7.6,2.6C167.7,74.4,165.5,75.8,165.3,77.7L165.3,77.7z"/>
	</g>
</g>
<path class="st1" d="M117.5,74.1c-0.3-1.3-2.3-1.7-3.3-1.8c-13-1.2-26-1.7-39.1-1.5c-2.3,0-4.9,0.7-7.1,1.5c-1.6,0.6-3.8,1.7-5,3.1
	c-2.6,3.3,2.4,4,4.6,4c3,0,6,0,8.9,0c1.4,0,2.8,0,4.2,0.1c-0.9,1-1.5,2.2-1.5,3.7c0.1,6.1-0.5,12.3-1.5,18.3
	c-0.9,5.4-2,11.2-4.1,16.3c-0.8-1.3-1.4-2.7-2.1-4.3c-1.1-2.5-2.2-5.6-2-8.1c0.3-4-5-4.4-7.9-4c-2.4,0.3-4.9,1-6.9,2.3
	c-1.3,0.9-3.3,2.3-3.4,4c-0.6,6.1,2,11.4,5,16.5c1.5,2.6,3.2,4.9,6.1,6.2c4.1,1.8,8.9,1.6,13.2,0.4c3.9-1.1,7.7-3,10.6-6
	c2.4-2.5,4-5.3,5.3-8.5c2.2-5.3,3.5-11.1,4.4-16.8c1.1-6.4,1.5-12.8,1.5-19.2c1.7,0.1,3.5,0.3,5.2,0.4c4.2,0.4,9.5-0.7,12.9-3.4
	C116.4,76.6,117.9,75.5,117.5,74.1z"/>
<g>
	<g>
		<path class="st1" d="M112.4,92.8c-1.7,6.2-2.8,12.5-3.2,18.9c-0.2,3-0.6,6.7,0.5,9.6c1.4,3.9,4.7,6,8.3,7.7c6,2.9,13.6,3.1,20,1.1
			c3.6-1.1,7.3-2.8,10.2-5.4c3-2.7,5-5.7,6.2-9.5c2.2-7.3,2.5-14.9,1.3-22.5c-0.3-1.6-2.2-2.9-3.6-3.4c-1.9-0.7-4.6-0.7-6.5-0.1
			c-3.6,1.1-7.7,3.8-7,8.1c0.2,1.2,0.4,2.5,0.5,3.7c-0.1-0.9,0,0.6,0,0.9c0,0.7,0,1.4,0,2.2c-0.1,2.7-0.3,5.4-0.9,8
			c-0.1,0.6-0.3,1.2-0.4,1.8c-0.1,0.3-0.1,0.6-0.2,0.9c0,0.1-0.3,1-0.1,0.3c0.2-0.7-0.1,0.2-0.1,0.3c-0.1,0.3-0.2,0.5-0.3,0.8
			c-0.1,0.2-0.7,1.7-0.9,1.7c-0.1,0,0.9-1,0.2-0.4c-0.1,0.1-0.5,0.6-0.5,0.6c0-0.1,1.2-1,0.5-0.5c-0.2,0.2-0.4,0.3-0.6,0.5
			c-0.2,0.2-0.4,0.3-0.7,0.5c-0.7,0.6,0.8-0.4,0.8-0.4c-0.5,0.2-1.1,0.6-1.6,0.8c-0.9,0.5,1.1-0.4,1-0.3c-0.2,0.1-0.5,0.2-0.7,0.2
			c-0.5,0.2-1,0.3-1.5,0.4c-1,0.3,1.1-0.3,1.1-0.2c-0.1,0.1-0.6,0.1-0.8,0.1c-0.3,0-0.5,0-0.8,0.1c-1.2,0.1,0.4-0.1,0.7,0
			c-0.5-0.2-1.3-0.1-1.8-0.2c-0.3,0-2-0.3-0.8-0.1c1.1,0.2-0.4-0.2-0.8-0.3c-0.2-0.1-1.6-0.7-1.7-0.7c0.1-0.1,1.2,0.7,0.5,0.2
			c-0.2-0.1-0.5-0.3-0.7-0.4c-0.5-0.3-0.9-0.6-1.3-0.9c-1-0.7,0.6,0.7-0.2-0.3c0.1,0.1,0.3,1,0.2,0.3c-0.1-0.3-0.2-0.7-0.3-1
			c-0.1-0.3-0.1-0.5-0.1-0.8c0,0.1,0,1,0,0.3c0-0.6,0-1.1,0-1.7c0-1.4,0.1-2.8,0.2-4.1c0.5-6.1,1.5-12.1,3.1-17.9
			c0.4-1.6-0.9-3.4-2.1-4.2c-1.5-1.1-4-1.5-5.8-1.3C117.5,86.4,113.6,88.5,112.4,92.8L112.4,92.8z"/>
	</g>
</g>
<path class="st1" d="M156.1,28.7c1.8-4.4,6-7.6,10.9-7.6c6.6,0,11.2,5.8,11.8,12.7c0,0,0.3,1.7-0.4,4.8c-1,4.2-3.2,7.9-6.2,10.7
	l-16.1,14.8l-15.8-14.8c-3-2.8-5.3-6.6-6.2-10.7c-0.7-3.1-0.4-4.8-0.4-4.8c0.6-6.9,5.3-12.7,11.8-12.7
	C150.4,21.1,154.3,24.2,156.1,28.7z"/>
<g>
	<g>
		<path class="st1" d="M225.8,79.8c0,14.5,1.5,30-1.6,44.2c-1,4.3,4.9,6.2,8.1,6c4.3-0.3,8.6-2.8,9.5-7.2
			c3.1-14.2,1.6-29.7,1.6-44.2C243.4,69.2,225.8,71.6,225.8,79.8L225.8,79.8z"/>
	</g>
</g>
<g>
	<g>
		<path class="st1" d="M233.1,78c0.3-0.3,0.6-0.4,0.1-0.2c0.2-0.1,0.4-0.1,0.6-0.1c0.8-0.1,1.7-0.3,2.4-0.2c1.4,0.2,3.1-0.1,4.1-1.1
			c0.8-0.8,0.7-1.9-0.6-2.1c-3.6-0.5-8.8-0.1-11.3,2.8c-0.8,0.9-0.7,1.8,0.6,2.1C230.2,79.4,232.3,79,233.1,78L233.1,78z"/>
	</g>
</g>
<g>
	<g>
		<path class="st2" d="M230.6,77.7c1.2-0.6,2.3-1.5,3.6-1.6c1.4-0.1,2.7,0.6,3.8,1.6c0.8,0.7,3.5-0.4,2.7-1.2
			c-1.4-1.4-3.3-2.1-5.3-2.2c-2.4,0-4,1-6,2C227.6,77.3,229.2,78.4,230.6,77.7L230.6,77.7z"/>
	</g>
</g>
<g>
	<g>
		<path class="st2" d="M164.2,25.9c3.2-0.3,6.1,1.8,7.1,4.7c0.3,0.8,3.1-0.1,2.9-0.8c-1.3-3.6-5-5.6-8.8-5.2
			c-0.5,0.1-1.7,0.2-1.9,0.7C163.2,25.8,163.6,26,164.2,25.9L164.2,25.9z"/>
	</g>
</g>
</svg>
