<?xml version="1.0" encoding="utf-8"?>
<!-- Generator: Adobe Illustrator 21.1.0, SVG Export Plug-In . SVG Version: 6.00 Build 0)  -->
<svg version="1.1" id="Слой_1" xmlns="http://www.w3.org/2000/svg" xmlns:xlink="http://www.w3.org/1999/xlink" x="0px" y="0px"
	 viewBox="0 0 2551.2 3201.2" style="enable-background:new 0 0 2551.2 3201.2;" xml:space="preserve">
<style type="text/css">
	.st0{fill:#F7F3AA;}
	.st1{fill:none;stroke:#F6BF38;stroke-width:6;stroke-miterlimit:10;}
	.st2{fill:none;stroke:#F6BF38;stroke-width:9;stroke-miterlimit:10;}
</style>
<g>
	<circle class="st0" cx="323.6" cy="437.9" r="29.4"/>
	<circle class="st1" cx="323.6" cy="437.9" r="29.4"/>
</g>
<g>
	<circle class="st0" cx="595" cy="234.1" r="71.3"/>
	<circle class="st1" cx="595" cy="234.1" r="71.3"/>
</g>
<g>
	<circle class="st0" cx="284.4" cy="77" r="31.2"/>
	<circle class="st1" cx="284.4" cy="77" r="31.2"/>
</g>
<g>
	<circle class="st0" cx="585" cy="1381.3" r="194"/>
	<circle class="st2" cx="585" cy="1381.3" r="194"/>
</g>
<g>
	<circle class="st0" cx="1638.2" cy="512.6" r="98.6"/>
	<circle class="st1" cx="1638.2" cy="512.6" r="98.6"/>
</g>
<g>
	<circle class="st0" cx="984.7" cy="988.8" r="31.2"/>
	<circle class="st1" cx="984.7" cy="988.8" r="31.2"/>
</g>
<g>
	<circle class="st0" cx="1335" cy="957.6" r="29.4"/>
	<circle class="st1" cx="1335" cy="957.6" r="29.4"/>
</g>
<g>
	<circle class="st0" cx="1218" cy="681.7" r="31.2"/>
	<circle class="st1" cx="1218" cy="681.7" r="31.2"/>
</g>
<g>
	<circle class="st0" cx="1644.7" cy="998.6" r="31.2"/>
	<circle class="st1" cx="1644.7" cy="998.6" r="31.2"/>
</g>
<g>
	<circle class="st0" cx="1451.9" cy="689" r="31.2"/>
	<circle class="st1" cx="1451.9" cy="689" r="31.2"/>
</g>
<g>
	<circle class="st0" cx="937.7" cy="513.6" r="98.6"/>
	<circle class="st1" cx="937.7" cy="513.6" r="98.6"/>
</g>
<g>
	
		<ellipse transform="matrix(0.9832 -0.1827 0.1827 0.9832 -54.0387 419.3872)" class="st0" cx="2249.2" cy="503" rx="30.7" ry="30.7"/>
	
		<ellipse transform="matrix(0.9832 -0.1827 0.1827 0.9832 -54.0388 419.3917)" class="st1" cx="2249.2" cy="503" rx="30.7" ry="30.7"/>
</g>
<g>
	
		<ellipse transform="matrix(0.9832 -0.1827 0.1827 0.9832 12.2624 414.3459)" class="st0" cx="2255" cy="140.6" rx="30.7" ry="30.7"/>
	
		<ellipse transform="matrix(0.9832 -0.1827 0.1827 0.9832 12.2618 414.3412)" class="st1" cx="2255" cy="140.6" rx="30.7" ry="30.7"/>
</g>
<g>
	
		<ellipse transform="matrix(0.9832 -0.1827 0.1827 0.9832 -7.1774 345.6021)" class="st0" cx="1872.2" cy="211.8" rx="70.2" ry="70.2"/>
	
		<ellipse transform="matrix(0.9832 -0.1827 0.1827 0.9832 -7.1774 345.6019)" class="st1" cx="1872.2" cy="211.8" rx="70.2" ry="70.2"/>
</g>
<g>
	<circle class="st0" cx="2253.1" cy="2959" r="118.7"/>
	<circle class="st1" cx="2253.1" cy="2959" r="118.7"/>
</g>
<g>
	<circle class="st0" cx="1611.5" cy="2854.8" r="31.2"/>
	<circle class="st1" cx="1611.5" cy="2854.8" r="31.2"/>
</g>
<g>
	<circle class="st0" cx="2208" cy="2337.4" r="29.4"/>
	<circle class="st1" cx="2208" cy="2337.4" r="29.4"/>
</g>
<g>
	<circle class="st0" cx="1972.1" cy="2927.8" r="31.2"/>
	<circle class="st1" cx="1972.1" cy="2927.8" r="31.2"/>
</g>
<g>
	<circle class="st0" cx="1972.1" cy="2532.5" r="71.3"/>
	<circle class="st1" cx="1972.1" cy="2532.5" r="71.3"/>
</g>
<g>
	<circle class="st0" cx="2282.7" cy="2689.6" r="31.2"/>
	<circle class="st1" cx="2282.7" cy="2689.6" r="31.2"/>
</g>
<g>
	<circle class="st0" cx="928.8" cy="2254" r="98.6"/>
	<circle class="st1" cx="928.8" cy="2254" r="98.6"/>
</g>
<g>
	<circle class="st0" cx="1561.9" cy="1762.8" r="31.2"/>
	<circle class="st1" cx="1561.9" cy="1762.8" r="31.2"/>
</g>
<g>
	<circle class="st0" cx="1263.3" cy="1901.1" r="29.4"/>
	<circle class="st1" cx="1263.3" cy="1901.1" r="29.4"/>
</g>
<g>
	<circle class="st0" cx="1297.1" cy="2656.7" r="31.2"/>
	<circle class="st1" cx="1297.1" cy="2656.7" r="31.2"/>
</g>
<g>
	<circle class="st0" cx="1006.4" cy="1745.9" r="31.2"/>
	<circle class="st1" cx="1006.4" cy="1745.9" r="31.2"/>
</g>
<g>
	<circle class="st0" cx="1288" cy="2159.3" r="31.2"/>
	<circle class="st1" cx="1288" cy="2159.3" r="31.2"/>
</g>
<g>
	<circle class="st0" cx="1629.3" cy="2253" r="98.6"/>
	<circle class="st1" cx="1629.3" cy="2253" r="98.6"/>
</g>
<g>
	
		<ellipse transform="matrix(0.9832 -0.1827 0.1827 0.9832 -524.9195 109.5985)" class="st0" cx="332.4" cy="2903.8" rx="116.9" ry="116.9"/>
	
		<ellipse transform="matrix(0.9832 -0.1827 0.1827 0.9832 -524.9191 109.5984)" class="st1" cx="332.4" cy="2903.8" rx="116.9" ry="116.9"/>
</g>
<g>
	
		<ellipse transform="matrix(0.9832 -0.1827 0.1827 0.9832 -404.4856 123.0521)" class="st0" cx="465.6" cy="2256.9" rx="30.7" ry="30.7"/>
	
		<ellipse transform="matrix(0.9832 -0.1827 0.1827 0.9832 -404.4859 123.0523)" class="st1" cx="465.6" cy="2256.9" rx="30.7" ry="30.7"/>
</g>
<g>
	
		<ellipse transform="matrix(0.9832 -0.1827 0.1827 0.9832 -504.5256 220.8179)" class="st0" cx="946.2" cy="2848.7" rx="28.9" ry="28.9"/>
	
		<ellipse transform="matrix(0.9832 -0.1827 0.1827 0.9832 -504.5243 220.8172)" class="st1" cx="946.2" cy="2848.7" rx="28.9" ry="28.9"/>
</g>
<g>
	
		<ellipse transform="matrix(0.9832 -0.1827 0.1827 0.9832 -474.5036 101.2042)" class="st0" cx="312" cy="2626" rx="30.7" ry="30.7"/>
	
		<ellipse transform="matrix(0.9832 -0.1827 0.1827 0.9832 -474.5039 101.2043)" class="st1" cx="312" cy="2626" rx="30.7" ry="30.7"/>
</g>
<g>
	
		<ellipse transform="matrix(0.9832 -0.1827 0.1827 0.9832 -455.0638 169.9479)" class="st0" cx="694.9" cy="2554.8" rx="70.2" ry="70.2"/>
	
		<ellipse transform="matrix(0.9832 -0.1827 0.1827 0.9832 -455.0633 169.9477)" class="st1" cx="694.9" cy="2554.8" rx="70.2" ry="70.2"/>
</g>
<g>
	
		<ellipse transform="matrix(0.9832 -0.1827 0.1827 0.9832 -516.8024 157.9034)" class="st0" cx="598.6" cy="2883.9" rx="30.7" ry="30.7"/>
	
		<ellipse transform="matrix(0.9832 -0.1827 0.1827 0.9832 -516.8015 157.903)" class="st1" cx="598.6" cy="2883.9" rx="30.7" ry="30.7"/>
</g>
<g>
	<circle class="st0" cx="1968.4" cy="1371.6" r="194"/>
	<circle class="st2" cx="1968.4" cy="1371.6" r="194"/>
</g>
<g>
	
		<ellipse transform="matrix(0.9832 -0.1827 0.1827 0.9832 -213.3118 271.0258)" class="st0" cx="1364.3" cy="1293.3" rx="30.7" ry="30.7"/>
	
		<ellipse transform="matrix(0.9832 -0.1827 0.1827 0.9832 -213.3118 271.0258)" class="st1" cx="1364.3" cy="1293.3" rx="30.7" ry="30.7"/>
</g>
<g>
	
		<ellipse transform="matrix(0.9832 -0.1827 0.1827 0.9832 -323.413 143.2378)" class="st0" cx="615.7" cy="1827" rx="30.7" ry="30.7"/>
	
		<ellipse transform="matrix(0.9832 -0.1827 0.1827 0.9832 -323.4124 143.2375)" class="st1" cx="615.7" cy="1827" rx="30.7" ry="30.7"/>
</g>
<g>
	
		<ellipse transform="matrix(0.9832 -0.1827 0.1827 0.9832 -120.2066 57.7189)" class="st0" cx="253.2" cy="681.3" rx="30.7" ry="30.7"/>
	
		<ellipse transform="matrix(0.9832 -0.1827 0.1827 0.9832 -120.2068 57.719)" class="st1" cx="253.2" cy="681.3" rx="30.7" ry="30.7"/>
</g>
<g>
	
		<ellipse transform="matrix(0.9832 -0.1827 0.1827 0.9832 -154.9876 105.1022)" class="st0" cx="493" cy="893.8" rx="30.7" ry="30.7"/>
	
		<ellipse transform="matrix(0.9832 -0.1827 0.1827 0.9832 -154.9875 105.1021)" class="st1" cx="493" cy="893.8" rx="30.7" ry="30.7"/>
</g>
<g>
	<circle class="st0" cx="2089.2" cy="1983.7" r="29.4"/>
	<circle class="st1" cx="2089.2" cy="1983.7" r="29.4"/>
</g>
<g>
	<circle class="st0" cx="1800.4" cy="1959.8" r="29.4"/>
	<circle class="st1" cx="1800.4" cy="1959.8" r="29.4"/>
</g>
<g>
	<circle class="st0" cx="2266.6" cy="1182.4" r="31.2"/>
	<circle class="st1" cx="2266.6" cy="1182.4" r="31.2"/>
</g>
<g>
	<circle class="st0" cx="2404.8" cy="1480.9" r="29.4"/>
	<circle class="st1" cx="2404.8" cy="1480.9" r="29.4"/>
</g>
<g>
	<circle class="st0" cx="2249.7" cy="1737.9" r="31.2"/>
	<circle class="st1" cx="2249.7" cy="1737.9" r="31.2"/>
</g>
<g>
	
		<ellipse transform="matrix(0.9832 -0.1827 0.1827 0.9832 -349.6496 461.6381)" class="st0" cx="2330.7" cy="2128.6" rx="30.7" ry="30.7"/>
	
		<ellipse transform="matrix(0.9832 -0.1827 0.1827 0.9832 -349.6469 461.6338)" class="st1" cx="2330.7" cy="2128.6" rx="30.7" ry="30.7"/>
</g>
<g>
	<circle class="st0" cx="2487.4" cy="655.1" r="29.4"/>
	<circle class="st1" cx="2487.4" cy="655.1" r="29.4"/>
</g>
<g>
	<circle class="st0" cx="2463.6" cy="943.8" r="29.4"/>
	<circle class="st1" cx="2463.6" cy="943.8" r="29.4"/>
</g>
<g>
	<circle class="st0" cx="210.1" cy="2301" r="31.2"/>
	<circle class="st1" cx="210.1" cy="2301" r="31.2"/>
</g>
<g>
	<circle class="st0" cx="71.8" cy="2002.4" r="29.4"/>
	<circle class="st1" cx="71.8" cy="2002.4" r="29.4"/>
</g>
<g>
	<circle class="st0" cx="226.9" cy="1745.4" r="31.2"/>
	<circle class="st1" cx="226.9" cy="1745.4" r="31.2"/>
</g>
<g>
	
		<ellipse transform="matrix(0.9832 -0.1827 0.1827 0.9832 -245.0561 49.4553)" class="st0" cx="145.9" cy="1354.8" rx="30.7" ry="30.7"/>
	
		<ellipse transform="matrix(0.9832 -0.1827 0.1827 0.9832 -245.056 49.4553)" class="st1" cx="145.9" cy="1354.8" rx="30.7" ry="30.7"/>
</g>
<g>
	<circle class="st0" cx="105.1" cy="2834" r="29.4"/>
	<circle class="st1" cx="105.1" cy="2834" r="29.4"/>
</g>
<g>
	<circle class="st0" cx="128.9" cy="2545.2" r="29.4"/>
	<circle class="st1" cx="128.9" cy="2545.2" r="29.4"/>
</g>
</svg>
